<svg width="25" height="24" viewBox="0 0 25 24" fill="none" xmlns="http://www.w3.org/2000/svg">
<path d="M6.52789 11.616C6.52789 10.672 6.67989 9.82403 6.98389 9.07203C7.28789 8.32003 7.67989 7.70403 8.15989 7.22403C8.65589 6.72803 9.26389 6.32003 9.98389 6.00003C10.5439 5.74403 11.2719 5.61603 12.1679 5.61603C12.9199 5.61603 13.5919 5.76803 14.1839 6.07203C14.7919 6.37603 15.2959 6.72803 15.6959 7.12803L14.0399 9.00003L13.8479 8.85603C13.5759 8.64803 13.3679 8.52003 13.2239 8.47203L12.9599 8.40003C12.6399 8.30403 12.3759 8.25603 12.1679 8.25603C11.8159 8.25603 11.4879 8.32803 11.1839 8.47203C10.8479 8.64803 10.5759 8.88003 10.3679 9.16803C10.1599 9.44003 9.98389 9.79203 9.83989 10.224C9.69589 10.656 9.62389 11.12 9.62389 11.616C9.62389 12.768 9.87189 13.592 10.3679 14.088C10.6239 14.408 10.9119 14.64 11.2319 14.784C11.5519 14.928 11.9119 15 12.3119 15C12.7119 15 13.0639 14.928 13.3679 14.784C13.7039 14.608 13.9759 14.376 14.1839 14.088L15.8399 15.984C15.3759 16.512 14.8239 16.936 14.1839 17.256C13.5919 17.544 12.9199 17.688 12.1679 17.688C11.4639 17.688 10.7359 17.568 9.98389 17.328C9.31189 17.104 8.71189 16.728 8.18389 16.2C7.95989 15.96 7.74389 15.648 7.53589 15.264C7.42389 15.04 7.26389 14.68 7.05589 14.184C6.70389 13.48 6.52789 12.624 6.52789 11.616ZM13.9679 9.67203H12.9119V10.944H11.7119V12H12.9119V13.344H13.9679V12H15.1679V10.944H13.9679V9.67203ZM18.4559 10.872V9.38403H17.1839V10.872H15.7679V12.144H17.1839V13.728H18.4559V12.144H19.8959V10.872H18.4559Z" fill="#519ABA"/>
</svg>
