<svg width="25" height="24" viewBox="0 0 25 24" fill="none" xmlns="http://www.w3.org/2000/svg">
<path d="M8.85591 7.48799H10.8959V13.2C10.8959 14.432 10.6079 15.328 10.0319 15.888C9.50391 16.4 8.71191 16.656 7.65591 16.656C7.41591 16.656 7.15191 16.64 6.86391 16.608C6.57591 16.56 6.34391 16.496 6.16791 16.416L6.38391 14.784C6.68791 14.928 7.03991 15 7.43991 15C7.88791 15 8.22391 14.88 8.44791 14.64C8.71991 14.352 8.85591 13.872 8.85591 13.2V7.48799ZM12.6959 14.4C12.9839 14.56 13.3199 14.696 13.7039 14.808C14.1359 14.936 14.5439 15 14.9279 15C15.4079 15 15.7679 14.92 16.0079 14.76C16.2479 14.584 16.3679 14.344 16.3679 14.04C16.3679 13.736 16.2559 13.496 16.0319 13.32C15.8079 13.128 15.4159 12.936 14.8559 12.744C13.2079 12.168 12.3839 11.272 12.3839 10.056C12.3839 9.25599 12.6879 8.60799 13.2959 8.11199C13.9199 7.59999 14.7679 7.34399 15.8399 7.34399C16.6879 7.34399 17.4639 7.49599 18.1679 7.79999L17.7119 9.45599L17.5679 9.38399C17.2799 9.27199 17.0479 9.19199 16.8719 9.14399C16.5359 9.04799 16.1919 8.99999 15.8399 8.99999C15.4079 8.99999 15.0719 9.08799 14.8319 9.26399C14.6079 9.42399 14.4959 9.63999 14.4959 9.91199C14.4959 10.184 14.6239 10.408 14.8799 10.584C15.0719 10.728 15.4879 10.928 16.1279 11.184C16.9279 11.488 17.5119 11.856 17.8799 12.288C18.2639 12.72 18.4559 13.248 18.4559 13.872C18.4559 14.672 18.1519 15.32 17.5439 15.816C16.8879 16.376 15.9679 16.656 14.7839 16.656C14.3199 16.656 13.8319 16.592 13.3199 16.464C12.9199 16.384 12.5599 16.272 12.2399 16.128L12.6959 14.4Z" fill="#CBCB41"/>
</svg>
