<svg id="Group_1" data-name="Group 1" xmlns="http://www.w3.org/2000/svg" width="97.771" height="55.684" viewBox="0 0 97.771 55.684">
  <g id="Group_3719" data-name="Group 3719" transform="translate(0 0)">
    <g id="Group_3718" data-name="Group 3718" transform="translate(0 0)">
      <path id="Path_3193" data-name="Path 3193" d="M428.328,305.5q2.925,3.363,2.925,8.995v17.881H423.27V315.748q0-6.616-5.14-6.616a6.571,6.571,0,0,0-3.527.93,5.931,5.931,0,0,0-2.3,2.679,9.855,9.855,0,0,0-.793,4.1v15.529H403.53V302.844H409l1.586,3.664a9.978,9.978,0,0,1,1.887-1.832,12.762,12.762,0,0,1,2.324-1.367,12.941,12.941,0,0,1,2.652-.875,13.839,13.839,0,0,1,2.925-.3A10,10,0,0,1,428.328,305.5Z" transform="translate(-367.439 -300.534)" fill="#040707"/>
      <path id="Path_3194" data-name="Path 3194" d="M668.527,319.134h-22.31a7.4,7.4,0,0,0,2.379,4.62,7.184,7.184,0,0,0,4.839,1.613,7.475,7.475,0,0,0,3.664-.9,6.614,6.614,0,0,0,2.57-2.488h8.421a15.141,15.141,0,0,1-14.654,10.5,14.65,14.65,0,0,1-10.936-4.484,15.273,15.273,0,0,1-4.374-11.1,17.059,17.059,0,0,1,.738-5.031,14.5,14.5,0,0,1,2.132-4.32,15.572,15.572,0,0,1,3.254-3.308,14.366,14.366,0,0,1,4.21-2.16,15.969,15.969,0,0,1,4.976-.766,15.376,15.376,0,0,1,7.956,2.078,14.11,14.11,0,0,1,5.414,5.632,16.308,16.308,0,0,1,1.886,7.765A17.434,17.434,0,0,1,668.527,319.134Zm-19.6-9.569a7.376,7.376,0,0,0-2.488,4.1h14.271a8.424,8.424,0,0,0-1.585-3.035,7,7,0,0,0-2.488-1.887,7.664,7.664,0,0,0-3.2-.656A6.958,6.958,0,0,0,648.923,309.565Z" transform="translate(-570.92 -299.818)" fill="#040707"/>
      <path id="Path_3195" data-name="Path 3195" d="M147.81,290.072a16.4,16.4,0,1,0,16.4,16.4A16.4,16.4,0,0,0,147.81,290.072ZM151.4,316.46a.617.617,0,0,1-.452.17h-.014c-.379,0-.757,0-1.135,0h-3.051c-.5,0-.716-.218-.716-.709v-1.684c0-4.27,0-5.358,0-10.155l-.161.065a3.306,3.306,0,0,1-.733.295l-.03.012a1.376,1.376,0,0,1-.47.127c-.13.028-.258.059-.387.089-.242.058-.491.118-.751.159l-.017,0a.818.818,0,0,0-.13.027l-.051.015-.042,0a.917.917,0,0,1-.164.019l-.486.048-.289.028a.62.62,0,0,1-.5-.144.606.606,0,0,1-.191-.472q.005-2.056,0-4.11a.59.59,0,0,1,.6-.631,3.4,3.4,0,0,0,.692-.129l.137-.035a2.825,2.825,0,0,0,.578-.2l.022-.01.662-.292a3.222,3.222,0,0,0,1.435-1.1,1.541,1.541,0,0,0,.243-.58.681.681,0,0,1,.736-.606h4.139a.688.688,0,0,1,.5.148.635.635,0,0,1,.188.516v6.532c0,2.965,0,5.412,0,9.964v.536c0,.549,0,1.1.008,1.647A.6.6,0,0,1,151.4,316.46Z" transform="translate(-131.406 -290.072)" fill="#040707"/>
    </g>
  </g>
  <g id="Group_3720" data-name="Group 3720" transform="translate(18.581 36.461)">
    <path id="Path_3196" data-name="Path 3196" d="M275.056,613.812a6.754,6.754,0,0,1-2.606-2.619,7.458,7.458,0,0,1-.942-3.716,7.1,7.1,0,0,1,7.251-7.276,6.948,6.948,0,0,1,4.3,1.368,6.713,6.713,0,0,1,2.464,3.638h-2.167a4.853,4.853,0,0,0-1.845-2.116,5.039,5.039,0,0,0-2.748-.774,4.763,4.763,0,0,0-3.574,1.484,5.087,5.087,0,0,0-1.432,3.677,5.349,5.349,0,0,0,.645,2.619,4.831,4.831,0,0,0,1.793,1.858,4.924,4.924,0,0,0,2.568.684,4.853,4.853,0,0,0,2.722-.787,5.1,5.1,0,0,0,1.845-2.18h2.219a6.733,6.733,0,0,1-2.49,3.7,6.974,6.974,0,0,1-4.3,1.381A7.39,7.39,0,0,1,275.056,613.812Z" transform="translate(-271.508 -595.531)" fill="#040707"/>
    <path id="Path_3197" data-name="Path 3197" d="M406.858,600.511v13.933h-1.832l-.232-2.116a6.652,6.652,0,0,1-2.387,1.793,7.433,7.433,0,0,1-3.083.632,6.948,6.948,0,0,1-5.135-2.077,7.58,7.58,0,0,1,0-10.4,6.948,6.948,0,0,1,5.135-2.077,7.367,7.367,0,0,1,3.109.645,6.786,6.786,0,0,1,2.387,1.807l.284-2.142Zm-3.69,10.656a5.434,5.434,0,0,0,0-7.379,5.3,5.3,0,0,0-7.341.013,5.366,5.366,0,0,0,0,7.354,5.3,5.3,0,0,0,7.341.013Z" transform="translate(-376.128 -595.531)" fill="#040707"/>
    <path id="Path_3198" data-name="Path 3198" d="M544.062,601.952v2.09h-1.419a3.76,3.76,0,0,0-2.929,1.148,4.6,4.6,0,0,0-1.045,3.213v7.56h-2.193V602.029h1.548l.361,2.116a5.062,5.062,0,0,1,4.438-2.193Z" transform="translate(-501.334 -597.05)" fill="#040707"/>
    <path id="Path_3199" data-name="Path 3199" d="M614.421,564.988V583.9h-1.677l-.31-1.987a7.418,7.418,0,0,1-10.514.22,7.7,7.7,0,0,1,0-10.411,7.466,7.466,0,0,1,10.308,0v-6.734Zm-3.509,15.623a5.365,5.365,0,0,0,.013-7.367,4.961,4.961,0,0,0-3.677-1.471,5.221,5.221,0,0,0-2.039.4,5,5,0,0,0-1.625,1.071,4.816,4.816,0,0,0-1.058,1.638,5.48,5.48,0,0,0-.387,2.051,5.051,5.051,0,0,0,1.445,3.69,4.9,4.9,0,0,0,3.651,1.471A4.967,4.967,0,0,0,610.912,580.611Z" transform="translate(-556.341 -564.988)" fill="#040707"/>
  </g>
</svg>
