<svg width="360" height="235" viewBox="0 0 360 235" fill="none" xmlns="http://www.w3.org/2000/svg">
<path d="M309.351 2.59741H4.15601V197.143H309.351V2.59741Z" stroke="#6D6E70" stroke-width="5.19481" stroke-miterlimit="10"/>
<path d="M25.4547 2.59741H4.15601V197.143H25.4547V2.59741Z" fill="#D0D2D3" stroke="#6D6E70" stroke-width="5.19481" stroke-miterlimit="10"/>
<path d="M14.8054 19.7402C17.8178 19.7402 20.2599 17.2982 20.2599 14.2857C20.2599 11.2732 17.8178 8.83115 14.8054 8.83115C11.7929 8.83115 9.35083 11.2732 9.35083 14.2857C9.35083 17.2982 11.7929 19.7402 14.8054 19.7402Z" fill="#6D6E70"/>
<path d="M14.8054 40.7792C17.8178 40.7792 20.2599 38.3371 20.2599 35.3247C20.2599 32.3122 17.8178 29.8701 14.8054 29.8701C11.7929 29.8701 9.35083 32.3122 9.35083 35.3247C9.35083 38.3371 11.7929 40.7792 14.8054 40.7792Z" fill="#6D6E70"/>
<path d="M14.8054 61.8182C17.8178 61.8182 20.2599 59.3761 20.2599 56.3637C20.2599 53.3512 17.8178 50.9091 14.8054 50.9091C11.7929 50.9091 9.35083 53.3512 9.35083 56.3637C9.35083 59.3761 11.7929 61.8182 14.8054 61.8182Z" fill="#6D6E70"/>
<path d="M14.8054 83.1169C17.8178 83.1169 20.2599 80.6748 20.2599 77.6623C20.2599 74.6498 17.8178 72.2078 14.8054 72.2078C11.7929 72.2078 9.35083 74.6498 9.35083 77.6623C9.35083 80.6748 11.7929 83.1169 14.8054 83.1169Z" fill="#6D6E70"/>
<path d="M14.8054 104.416C17.8178 104.416 20.2599 101.974 20.2599 98.961C20.2599 95.9486 17.8178 93.5065 14.8054 93.5065C11.7929 93.5065 9.35083 95.9486 9.35083 98.961C9.35083 101.974 11.7929 104.416 14.8054 104.416Z" fill="#0072C6"/>
<path d="M120.779 26.7532H155.584" stroke="#00ADEE" stroke-width="5.19481" stroke-miterlimit="10"/>
<path d="M129.351 42.3376H159.221" stroke="#58595B" stroke-width="5.19481" stroke-miterlimit="10"/>
<path d="M129.351 57.9221H271.948" stroke="#58595B" stroke-width="5.19481" stroke-miterlimit="10"/>
<path d="M142.078 89.0909H283.636" stroke="#58595B" stroke-width="5.19481" stroke-miterlimit="10"/>
<path d="M151.688 104.675H245.714" stroke="#58595B" stroke-width="5.19481" stroke-miterlimit="10"/>
<path d="M129.351 73.5065H189.351" stroke="#58595B" stroke-width="5.19481" stroke-miterlimit="10"/>
<path d="M95.3247 2.59741H25.4546V197.143H95.3247V2.59741Z" fill="#D0D2D3" stroke="#6D6E70" stroke-width="5.19481" stroke-miterlimit="10"/>
<path d="M95.3247 7.27271H25.4546V57.9221H95.3247V7.27271Z" stroke="#6D6E70" stroke-width="5.19481" stroke-miterlimit="10"/>
<path d="M95.3247 57.9221H25.4546V108.571H95.3247V57.9221Z" stroke="#6D6E70" stroke-width="5.19481" stroke-miterlimit="10"/>
<path d="M95.3247 108.312H25.4546V158.961H95.3247V108.312Z" stroke="#6D6E70" stroke-width="5.19481" stroke-miterlimit="10"/>
<path d="M33.7661 15.5844H38.9609" stroke="#D9B000" stroke-width="5.19481" stroke-miterlimit="10"/>
<path d="M41.5583 15.5844H75.3246" stroke="#58595B" stroke-width="5.19481" stroke-miterlimit="10"/>
<path d="M41.5583 25.974H75.3246" stroke="#58595B" stroke-width="5.19481" stroke-miterlimit="10"/>
<path d="M33.7661 25.974H38.9609" stroke="#D9B000" stroke-width="5.19481" stroke-miterlimit="10"/>
<path d="M41.5583 36.3636H75.3246" stroke="#58595B" stroke-width="5.19481" stroke-miterlimit="10"/>
<path d="M33.7661 36.3636H38.9609" stroke="#D9B000" stroke-width="5.19481" stroke-miterlimit="10"/>
<path d="M33.7661 67.5325H38.9609" stroke="#11A1E2" stroke-width="5.19481" stroke-miterlimit="10"/>
<path d="M41.5583 67.5325H75.3246" stroke="#58595B" stroke-width="5.19481" stroke-miterlimit="10"/>
<path d="M41.5583 77.9221H75.3246" stroke="#58595B" stroke-width="5.19481" stroke-miterlimit="10"/>
<path d="M33.7661 77.9221H38.9609" stroke="#11A1E2" stroke-width="5.19481" stroke-miterlimit="10"/>
<path d="M41.5583 88.3117H75.3246" stroke="#58595B" stroke-width="5.19481" stroke-miterlimit="10"/>
<path d="M33.7661 88.3117H38.9609" stroke="#11A1E2" stroke-width="5.19481" stroke-miterlimit="10"/>
<path d="M33.7661 116.883H38.9609" stroke="#60BD16" stroke-width="5.19481" stroke-miterlimit="10"/>
<path d="M41.5583 116.883H75.3246" stroke="#58595B" stroke-width="5.19481" stroke-miterlimit="10"/>
<path d="M41.5583 127.273H75.3246" stroke="#58595B" stroke-width="5.19481" stroke-miterlimit="10"/>
<path d="M33.7661 127.273H38.9609" stroke="#60BD16" stroke-width="5.19481" stroke-miterlimit="10"/>
<path d="M41.5583 137.662H75.3246" stroke="#58595B" stroke-width="5.19481" stroke-miterlimit="10"/>
<path d="M33.7661 137.662H38.9609" stroke="#60BD16" stroke-width="5.19481" stroke-miterlimit="10"/>
<path d="M33.7661 168.831H38.9609" stroke="#1A6ECD" stroke-width="5.19481" stroke-miterlimit="10"/>
<path d="M41.5583 168.831H75.3246" stroke="#58595B" stroke-width="5.19481" stroke-miterlimit="10"/>
<path d="M41.5583 179.221H75.3246" stroke="#58595B" stroke-width="5.19481" stroke-miterlimit="10"/>
<path d="M33.7661 179.221H38.9609" stroke="#1A6ECD" stroke-width="5.19481" stroke-miterlimit="10"/>
<path d="M41.5583 189.61H75.3246" stroke="#58595B" stroke-width="5.19481" stroke-miterlimit="10"/>
<path d="M33.7661 189.61H38.9609" stroke="#1A6ECD" stroke-width="5.19481" stroke-miterlimit="10"/>
<path d="M264 117C264 143.51 285.49 165 312 165C338.51 165 360 143.51 360 117C360 90.4903 338.51 69 312 69C285.49 69 264 90.4903 264 117Z" fill="#0072C6"/>
<path fill-rule="evenodd" clip-rule="evenodd" d="M299.616 93.3006C300.13 91.7762 301.56 90.7499 303.169 90.7499H305.124H306.029L306.029 90.75H320.83C322.439 90.75 323.869 91.7764 324.383 93.3008L339.571 138.3C340.391 140.731 338.583 143.25 336.018 143.25H318.875V143.233C318.758 143.244 318.639 143.25 318.518 143.25H318.452C317.647 143.25 316.862 142.99 316.216 142.51L304.767 134.005L302.507 140.699C301.993 142.223 300.563 143.249 298.954 143.249H287.982C285.416 143.249 283.608 140.731 284.429 138.3L299.616 93.3006ZM296.642 124.855L317.707 140.503C317.922 140.663 318.184 140.75 318.452 140.75H318.518C319.373 140.75 319.976 139.91 319.702 139.1L311.315 114.249L307.751 123.724L307.446 124.534H306.581H296.212L296.642 124.855ZM336.018 140.75H322.055C322.324 139.995 322.355 139.142 322.071 138.3L306.883 93.3008C306.878 93.2838 306.872 93.2669 306.866 93.25H320.83C321.367 93.25 321.843 93.5921 322.015 94.1003L337.202 139.1C337.475 139.91 336.873 140.75 336.018 140.75Z" fill="white"/>
</svg>
