<svg width="25" height="24" viewBox="0 0 25 24" fill="none" xmlns="http://www.w3.org/2000/svg">
<path d="M9.83988 14.784C9.75988 14.272 9.51188 13.944 9.09588 13.8L8.56788 13.488C8.26388 13.392 8.06388 13.32 7.96788 13.272C7.82388 13.208 7.67188 13.256 7.51188 13.416C7.44788 13.56 7.47188 13.688 7.58388 13.8C7.63188 13.896 7.73588 14.024 7.89588 14.184C7.99188 14.328 8.16788 14.528 8.42388 14.784L8.47188 14.856C8.55188 14.968 8.59988 15.056 8.61588 15.12C8.66388 15.216 8.67188 15.328 8.63988 15.456C8.55988 16.032 8.33588 16.504 7.96788 16.872C7.93588 16.904 7.89588 16.928 7.84788 16.944H7.82388C7.71188 16.944 7.58388 16.92 7.43988 16.872C7.31188 16.808 7.20788 16.736 7.12788 16.656C7.03188 16.544 6.99188 16.44 7.00788 16.344C7.02388 16.232 7.09588 16.136 7.22388 16.056C7.25588 16.056 7.28788 16.04 7.31988 16.008C7.35188 15.976 7.36788 15.936 7.36788 15.888C7.52788 15.728 7.57588 15.56 7.51188 15.384C7.47988 15.352 7.44788 15.312 7.41588 15.264C7.39988 15.216 7.38388 15.176 7.36788 15.144C7.15988 14.952 6.80788 14.656 6.31188 14.256C5.38388 13.536 4.88788 12.632 4.82388 11.544C4.74388 10.392 5.01588 9.27198 5.63988 8.18397C5.91188 7.71997 6.23988 7.39197 6.62388 7.19997C6.81588 7.10397 7.11188 6.99997 7.51188 6.88797C8.51988 6.61597 9.39188 6.54397 10.1279 6.67197C10.9759 6.84797 11.5039 7.27198 11.7119 7.94397C11.8719 8.51998 11.9199 9.02397 11.8559 9.45598C11.8239 9.96798 11.6239 10.432 11.2559 10.848C10.9039 11.264 10.4799 11.544 9.98388 11.688C9.75988 11.768 9.58388 11.792 9.45588 11.76C9.32788 11.712 9.20788 11.592 9.09588 11.4L8.97588 11.232C8.78388 10.944 8.64788 10.728 8.56788 10.584V10.488C8.56788 10.472 8.55188 10.456 8.51988 10.44C8.50388 10.408 8.49588 10.376 8.49588 10.344C8.54388 10.648 8.58388 10.872 8.61588 11.016C8.67988 11.256 8.75988 11.456 8.85588 11.616C8.95188 11.744 9.03988 11.84 9.11988 11.904C9.21588 11.968 9.32788 12 9.45588 12C10.4319 12.08 11.2079 11.752 11.7839 11.016C12.3439 10.248 12.5439 9.30397 12.3839 8.18397C12.3839 8.05597 12.3519 7.89597 12.2879 7.70398L12.2399 7.58398C12.2399 7.48797 12.2479 7.42397 12.2639 7.39197C12.2799 7.34397 12.3199 7.30397 12.3839 7.27198C12.4799 7.27198 12.5279 7.24797 12.5279 7.19997C13.3919 7.02397 14.1679 6.97598 14.8559 7.05597C15.8479 7.13597 16.6719 7.40797 17.3279 7.87197C18.4799 8.59197 19.2559 9.66398 19.6559 11.088C19.7039 11.248 19.7279 11.448 19.7279 11.688C19.7279 11.768 19.7119 11.816 19.6799 11.832C19.6479 11.832 19.5919 11.816 19.5119 11.784C19.4479 11.736 19.3679 11.664 19.2719 11.568L19.2239 11.472C19.1919 11.456 19.1519 11.408 19.1039 11.328C19.0559 11.248 19.0159 11.192 18.9839 11.16C18.9519 11.128 18.9199 11.112 18.8879 11.112C18.8559 11.112 18.8399 11.128 18.8399 11.16C18.8399 11.192 18.8239 11.232 18.7919 11.28C18.7759 11.328 18.7679 11.368 18.7679 11.4C18.5119 12.264 18.1599 12.912 17.7119 13.344C17.6799 13.392 17.6479 13.448 17.6159 13.512C17.5839 13.56 17.5679 13.608 17.5679 13.656L17.5439 13.944C17.5279 14.216 17.5359 14.416 17.5679 14.544L17.7839 16.416C17.8159 16.592 17.7999 16.728 17.7359 16.824C17.6879 16.92 17.5759 17.008 17.3999 17.088C17.1119 17.2 16.8639 17.256 16.6559 17.256H15.4559C15.4559 16.952 15.4399 16.736 15.4079 16.608C15.3599 16.384 15.2559 16.224 15.0959 16.128C15.1919 15.728 15.2639 15.4 15.3119 15.144C15.3759 14.888 15.3279 14.64 15.1679 14.4C15.0399 14.208 14.8399 14.16 14.5679 14.256C14.0239 14.592 13.3999 14.64 12.6959 14.4C12.5199 14.352 12.3759 14.344 12.2639 14.376C12.1679 14.408 12.0879 14.488 12.0239 14.616C11.8639 14.92 11.7839 15.224 11.7839 15.528C11.7839 15.832 11.8319 16.232 11.9279 16.728C11.9279 16.856 11.9199 16.944 11.9039 16.992C11.8879 17.024 11.8239 17.056 11.7119 17.088C11.2319 17.232 10.7359 17.264 10.2239 17.184H10.1279C10.1279 16.88 10.1119 16.664 10.0799 16.536C9.99988 16.312 9.84788 16.152 9.62388 16.056C9.86388 15.8 9.93588 15.376 9.83988 14.784ZM6.76788 13.056C6.86388 12.944 6.91188 12.84 6.91188 12.744C6.94388 12.632 6.91988 12.504 6.83988 12.36C6.75988 12.216 6.65588 12.12 6.52788 12.072C6.46388 12.04 6.40788 12.032 6.35988 12.048C6.32788 12.064 6.28788 12.096 6.23988 12.144C6.15988 12.224 6.05588 12.344 5.92788 12.504C5.81588 12.648 5.71988 12.752 5.63988 12.816C5.63988 12.848 5.62388 12.88 5.59188 12.912C5.57588 12.928 5.56788 12.952 5.56788 12.984C5.51988 13.048 5.51188 13.112 5.54388 13.176C5.57588 13.24 5.63188 13.272 5.71188 13.272C5.85588 13.272 5.95988 13.296 6.02388 13.344C6.31188 13.344 6.55988 13.248 6.76788 13.056ZM6.76788 10.584C6.76788 10.504 6.73588 10.432 6.67188 10.368C6.60788 10.304 6.53588 10.272 6.45588 10.272C6.37588 10.272 6.29588 10.312 6.21588 10.392C6.15188 10.456 6.13588 10.544 6.16788 10.656C6.16788 10.736 6.19988 10.808 6.26388 10.872C6.34388 10.92 6.43188 10.944 6.52788 10.944C6.68788 10.8 6.76788 10.68 6.76788 10.584Z" fill="#A074C4"/>
</svg>
