<svg width="25" height="24" viewBox="0 0 25 24" fill="none" xmlns="http://www.w3.org/2000/svg">
<path d="M13.1279 14.472C12.9999 14.472 12.8319 14.488 12.6239 14.52C12.4799 14.536 12.3759 14.544 12.3119 14.544H10.9679C11.0639 13.472 11.1999 11.872 11.3759 9.74398C11.5519 7.61598 11.6879 6.01598 11.7839 4.94398H12.6719C13.3599 4.91198 13.8639 4.91198 14.1839 4.94398C14.2959 4.94398 14.4079 5.01598 14.5199 5.15998C14.6319 5.30398 14.6719 5.43198 14.6399 5.54398C14.5279 6.34398 14.3279 7.55198 14.0399 9.16798L13.7279 10.8C13.6479 11.472 13.4879 12.504 13.2479 13.896L13.1279 14.472ZM13.4399 17.472C13.4719 17.888 13.3359 18.264 13.0319 18.6C12.7279 18.92 12.3359 19.096 11.8559 19.128C11.3759 19.16 10.9359 19.048 10.5359 18.792C10.1519 18.52 9.94392 18.184 9.91192 17.784C9.87992 17.32 10.0159 16.936 10.3199 16.632C10.6239 16.328 11.0399 16.16 11.5679 16.128C12.0959 16.096 12.5279 16.2 12.8639 16.44C13.2159 16.68 13.4079 17.024 13.4399 17.472Z" fill="#A074C4"/>
</svg>
