<svg width="360" height="235" viewBox="0 0 360 235" fill="none" xmlns="http://www.w3.org/2000/svg">
<path d="M26.5198 97.5H308.1V112.58H26.5198V97.5Z" fill="#E6E7E8"/>
<path d="M2.6001 2.60001H308.1V197.34H2.6001V2.60001Z" stroke="#6D6E71" stroke-width="5.2" stroke-miterlimit="10"/>
<path d="M2.6001 2.60001H23.9201V197.34H2.6001V2.60001Z" fill="#D1D3D4" stroke="#6D6E71" stroke-width="5.2" stroke-miterlimit="10"/>
<path d="M13.26 19.76C16.2755 19.76 18.72 17.3155 18.72 14.3C18.72 11.2845 16.2755 8.84 13.26 8.84C10.2446 8.84 7.80005 11.2845 7.80005 14.3C7.80005 17.3155 10.2446 19.76 13.26 19.76Z" fill="#6D6E71"/>
<path d="M13.26 41.08C16.2755 41.08 18.72 38.6355 18.72 35.62C18.72 32.6045 16.2755 30.16 13.26 30.16C10.2446 30.16 7.80005 32.6045 7.80005 35.62C7.80005 38.6355 10.2446 41.08 13.26 41.08Z" fill="#6D6E71"/>
<path d="M13.26 62.14C16.2755 62.14 18.72 59.6955 18.72 56.68C18.72 53.6646 16.2755 51.22 13.26 51.22C10.2446 51.22 7.80005 53.6646 7.80005 56.68C7.80005 59.6955 10.2446 62.14 13.26 62.14Z" fill="#6D6E71"/>
<path d="M13.26 83.2C16.2755 83.2 18.72 80.7554 18.72 77.74C18.72 74.7245 16.2755 72.28 13.26 72.28C10.2446 72.28 7.80005 74.7245 7.80005 77.74C7.80005 80.7554 10.2446 83.2 13.26 83.2Z" fill="#6D6E71"/>
<path d="M51.22 26.78H86.06" stroke="#00AEEF" stroke-width="5.2" stroke-miterlimit="10"/>
<path d="M59.8 42.38H89.7001" stroke="#58595B" stroke-width="5.2" stroke-miterlimit="10"/>
<path d="M59.8 58.24H202.54" stroke="#58595B" stroke-width="5.2" stroke-miterlimit="10"/>
<path d="M72.8 89.44H214.24" stroke="#58595B" stroke-width="5.2" stroke-miterlimit="10"/>
<path d="M82.1597 105.04H119.86" stroke="#00AEEF" stroke-width="5.2" stroke-miterlimit="10"/>
<path d="M59.8 73.84H119.86" stroke="#58595B" stroke-width="5.2" stroke-miterlimit="10"/>
<path d="M124.02 98.54V109.46" stroke="#BCBEC0" stroke-width="5.2" stroke-miterlimit="10"/>
<path d="M82.1597 112.58H207.74V169.26H82.1597V112.58Z" stroke="#58595B" stroke-width="5.2" stroke-miterlimit="10"/>
<path d="M86.3198 117.26H203.58V133.9H86.3198V117.26Z" fill="#1C75BC"/>
<path d="M105.82 126.1H191.1" stroke="white" stroke-width="5.2" stroke-miterlimit="10"/>
<path d="M105.82 140.92H191.1" stroke="#58595B" stroke-width="5.2" stroke-miterlimit="10"/>
<path d="M105.82 156H191.1" stroke="#58595B" stroke-width="5.2" stroke-miterlimit="10"/>
<path d="M90.4802 126.1H96.7202" stroke="white" stroke-width="5.2" stroke-miterlimit="10"/>
<path d="M90.4802 140.92H96.7202" stroke="#58595B" stroke-width="5.2" stroke-miterlimit="10"/>
<path d="M90.4802 156H96.7202" stroke="#58595B" stroke-width="5.2" stroke-miterlimit="10"/>
<path d="M264 117.973C264 144.468 285.478 165.946 311.973 165.946C338.468 165.946 359.946 144.468 359.946 117.973C359.946 91.4782 338.468 70 311.973 70C285.478 70 264 91.4782 264 117.973Z" fill="#2E3192"/>
<path d="M312.639 85.991C314.659 85.991 316.606 86.2512 318.48 86.7718C320.354 87.2923 322.103 88.0315 323.727 88.9893C325.372 89.9471 326.86 91.0923 328.193 92.4248C329.526 93.7574 330.671 95.2462 331.629 96.8911C332.586 98.5151 333.325 100.264 333.846 102.138C334.367 104.012 334.627 105.959 334.627 107.979C334.627 110.998 334.054 113.798 332.909 116.38C331.764 118.962 330.129 121.304 328.006 123.407C326.277 125.115 324.945 127.02 324.008 129.123C323.092 131.226 322.634 133.506 322.634 135.963V143.958C322.634 144.791 322.477 145.572 322.165 146.301C321.853 147.029 321.426 147.664 320.885 148.206C320.343 148.747 319.708 149.174 318.979 149.486C318.251 149.799 317.47 149.955 316.637 149.955H308.641C307.809 149.955 307.028 149.799 306.299 149.486C305.57 149.174 304.935 148.747 304.394 148.206C303.852 147.664 303.426 147.029 303.113 146.301C302.801 145.572 302.645 144.791 302.645 143.958V135.963C302.645 133.506 302.176 131.226 301.239 129.123C300.323 127.02 299.001 125.115 297.273 123.407C295.149 121.304 293.515 118.962 292.369 116.38C291.224 113.798 290.652 110.998 290.652 107.979C290.652 105.959 290.912 104.012 291.432 102.138C291.953 100.264 292.692 98.5151 293.65 96.8911C294.608 95.2462 295.753 93.7574 297.085 92.4248C298.418 91.0923 299.896 89.9471 301.52 88.9893C303.165 88.0315 304.925 87.2923 306.799 86.7718C308.673 86.2512 310.62 85.991 312.639 85.991ZM316.637 145.957C317.178 145.957 317.647 145.759 318.042 145.364C318.438 144.968 318.636 144.5 318.636 143.958V137.962H306.643V143.958C306.643 144.5 306.84 144.968 307.236 145.364C307.632 145.759 308.1 145.957 308.641 145.957H316.637ZM318.73 133.964C319 131.278 319.687 128.842 320.791 126.656C321.894 124.469 323.383 122.429 325.257 120.534C326.985 118.785 328.307 116.88 329.224 114.818C330.161 112.736 330.629 110.456 330.629 107.979C330.629 105.501 330.15 103.169 329.192 100.983C328.255 98.7962 326.975 96.8911 325.351 95.267C323.727 93.6429 321.822 92.3624 319.635 91.4254C317.449 90.4676 315.117 89.9887 312.639 89.9887C310.161 89.9887 307.829 90.4676 305.643 91.4254C303.457 92.3624 301.552 93.6429 299.928 95.267C298.304 96.8911 297.013 98.7962 296.055 100.983C295.118 103.169 294.649 105.501 294.649 107.979C294.649 110.456 295.107 112.736 296.024 114.818C296.961 116.88 298.293 118.785 300.021 120.534C301.895 122.429 303.384 124.469 304.488 126.656C305.591 128.842 306.278 131.278 306.549 133.964H318.73Z" fill="white"/>
</svg>
