<svg width="360" height="235" viewBox="0 0 360 235" fill="none" xmlns="http://www.w3.org/2000/svg">
<g clip-path="url(#clip0)">
<path opacity="0.75" d="M352.711 81.7438H140.281V96.843H352.711V81.7438Z" fill="#FAAF40"/>
<path d="M355.054 2.6033H49.1655V197.591H355.054V2.6033Z" stroke="#6D6E70" stroke-width="5.20661" stroke-miterlimit="10"/>
<path d="M70.5126 2.6033H49.1655V197.591H70.5126V2.6033Z" fill="#D0D2D3" stroke="#6D6E70" stroke-width="5.20661" stroke-miterlimit="10"/>
<path d="M59.839 19.7851C62.8583 19.7851 65.306 17.3375 65.306 14.3182C65.306 11.2989 62.8583 8.85123 59.839 8.85123C56.8197 8.85123 54.3721 11.2989 54.3721 14.3182C54.3721 17.3375 56.8197 19.7851 59.839 19.7851Z" fill="#6D6E70"/>
<path d="M59.839 40.8719C62.8583 40.8719 65.306 38.4243 65.306 35.405C65.306 32.3857 62.8583 29.938 59.839 29.938C56.8197 29.938 54.3721 32.3857 54.3721 35.405C54.3721 38.4243 56.8197 40.8719 59.839 40.8719Z" fill="#6D6E70"/>
<path d="M59.839 61.9587C62.8583 61.9587 65.306 59.5111 65.306 56.4918C65.306 53.4724 62.8583 51.0248 59.839 51.0248C56.8197 51.0248 54.3721 53.4724 54.3721 56.4918C54.3721 59.5111 56.8197 61.9587 59.839 61.9587Z" fill="#6D6E70"/>
<path d="M59.839 83.3058C62.8583 83.3058 65.306 80.8581 65.306 77.8388C65.306 74.8195 62.8583 72.3719 59.839 72.3719C56.8197 72.3719 54.3721 74.8195 54.3721 77.8388C54.3721 80.8581 56.8197 83.3058 59.839 83.3058Z" fill="#6D6E70"/>
<path d="M166.054 26.814H200.938" stroke="#00ADEE" stroke-width="5.20661" stroke-miterlimit="10"/>
<path d="M174.645 42.4338H204.583" stroke="#58595B" stroke-width="5.20661" stroke-miterlimit="10"/>
<path d="M174.645 58.0537H317.566" stroke="#58595B" stroke-width="5.20661" stroke-miterlimit="10"/>
<path d="M187.401 89.2934H329.281" stroke="#58595B" stroke-width="5.20661" stroke-miterlimit="10"/>
<path d="M197.033 104.913H291.272" stroke="#58595B" stroke-width="5.20661" stroke-miterlimit="10"/>
<path d="M174.645 73.6735H234.781" stroke="#58595B" stroke-width="5.20661" stroke-miterlimit="10"/>
<path d="M355.054 139.277H141.322V197.591H355.054V139.277Z" stroke="#58595B" stroke-width="5.20661" stroke-miterlimit="10"/>
<path d="M140.541 2.6033H70.5125V197.591H140.541V2.6033Z" fill="#D0D2D3" stroke="#6D6E70" stroke-width="5.20661" stroke-miterlimit="10"/>
<path d="M140.541 7.28922H70.5125V58.0537H140.541V7.28922Z" stroke="#6D6E70" stroke-width="5.20661" stroke-miterlimit="10"/>
<path d="M140.541 58.0537H70.5125V108.818H140.541V58.0537Z" stroke="#6D6E70" stroke-width="5.20661" stroke-miterlimit="10"/>
<path d="M140.541 108.558H70.5125V159.322H140.541V108.558Z" stroke="#6D6E70" stroke-width="5.20661" stroke-miterlimit="10"/>
<path d="M154.86 177.806L161.368 184.314L154.86 190.822" stroke="#BBBDBF" stroke-width="5.20661" stroke-miterlimit="10"/>
<path d="M78.843 16.6611H103.314" stroke="#58595B" stroke-width="5.20661" stroke-miterlimit="10"/>
<path d="M107.479 16.6611H122.578" stroke="#28ABE2" stroke-width="5.20661" stroke-miterlimit="10"/>
<path d="M107.479 25.5124H122.578" stroke="#28ABE2" stroke-width="5.20661" stroke-miterlimit="10"/>
<path d="M78.843 25.5124H103.314" stroke="#58595B" stroke-width="5.20661" stroke-miterlimit="10"/>
<path d="M78.843 67.1653H112.165" stroke="#58595B" stroke-width="5.20661" stroke-miterlimit="10"/>
<path d="M78.843 117.93H112.165" stroke="#58595B" stroke-width="5.20661" stroke-miterlimit="10"/>
<path d="M78.843 125.479H112.165" stroke="#58595B" stroke-width="5.20661" stroke-miterlimit="10"/>
<path d="M78.843 169.475H112.165" stroke="#58595B" stroke-width="5.20661" stroke-miterlimit="10"/>
<path opacity="0.75" d="M152.517 93.9793C155.105 93.9793 157.202 91.8813 157.202 89.2934C157.202 86.7054 155.105 84.6074 152.517 84.6074C149.929 84.6074 147.831 86.7054 147.831 89.2934C147.831 91.8813 149.929 93.9793 152.517 93.9793Z" fill="#F42534"/>
</g>
<path d="M0 117C0 143.51 21.4903 165 48 165C74.5097 165 96 143.51 96 117C96 90.4903 74.5097 69 48 69C21.4903 69 0 90.4903 0 117Z" fill="#37B34A"/>
<path d="M45.1733 121L41.6533 124.52C41.118 122.365 39.8767 120.45 38.1272 119.082C36.3778 117.714 34.2208 116.971 32 116.971C29.7792 116.971 27.6222 117.714 25.8728 119.082C24.1233 120.45 22.882 122.365 22.3467 124.52L18.8267 121L16 123.827L20.5867 128.413L20 129V133H16V137H20V137.213C20.204 138.516 20.5713 139.789 21.0933 141L16 146.173L18.8267 149L23.2267 144.6C24.2735 145.936 25.6031 147.023 27.12 147.784C28.6369 148.544 30.3035 148.96 32 149C33.6965 148.96 35.3631 148.544 36.88 147.784C38.3969 147.023 39.7265 145.936 40.7733 144.6L45.1733 149L48 146.173L42.9067 141C43.4352 139.763 43.8026 138.464 44 137.133V136.867H48V133H44V129L43.4133 128.413L48 123.827L45.1733 121ZM32 121C33.5913 121 35.1174 121.632 36.2426 122.757C37.3679 123.883 38 125.409 38 127H26C26 125.409 26.6321 123.883 27.7574 122.757C28.8826 121.632 30.4087 121 32 121V121ZM40 137C39.8046 139.056 38.899 140.979 37.4389 142.439C35.9789 143.899 34.0556 144.805 32 145C29.9444 144.805 28.0211 143.899 26.5611 142.439C25.101 140.979 24.1954 139.056 24 137V131H40V137ZM79.36 110.6V113.96L52 131.32V126.6L74.6667 112.28L40 90.3333V115.56C38.7815 114.704 37.43 114.055 36 113.64V86.68L39.04 85L79.36 110.6Z" fill="white"/>
<defs>
<clipPath id="clip0">
<path d="M45 0H360V200.455H45V0Z" fill="white"/>
</clipPath>
</defs>
</svg>
