<svg width="25" height="24" viewBox="0 0 25 24" fill="none" xmlns="http://www.w3.org/2000/svg">
<path d="M5.92792 11.328C6.43992 11.328 6.79992 11.208 7.00792 10.968C7.15192 10.792 7.22392 10.536 7.22392 10.2C7.22392 10.056 7.20792 9.84802 7.17592 9.57603C7.14392 9.28803 7.12792 9.07202 7.12792 8.92802C7.12792 8.76802 7.11992 8.53603 7.10392 8.23203C7.07192 7.96003 7.05592 7.76802 7.05592 7.65602C7.05592 6.88802 7.27992 6.32002 7.72792 5.95202C8.17592 5.58402 8.80792 5.40002 9.62392 5.40002H10.2239V6.81602H9.91192C9.55992 6.81602 9.30392 6.92002 9.14392 7.12803C8.99992 7.32002 8.92792 7.61602 8.92792 8.01603C8.92792 8.11202 8.94392 8.25602 8.97592 8.44803C9.00792 8.68802 9.02392 8.87203 9.02392 9.00003C9.02392 9.09602 9.03192 9.24802 9.04792 9.45602C9.07992 9.74402 9.09592 9.96803 9.09592 10.128C9.09592 10.736 8.96792 11.192 8.71192 11.496C8.48792 11.768 8.13592 11.96 7.65592 12.072C8.13592 12.2 8.48792 12.392 8.71192 12.648C8.96792 12.968 9.09592 13.424 9.09592 14.016C9.09592 14.192 9.07992 14.424 9.04792 14.712C9.01592 14.92 8.99992 15.072 8.99992 15.168C9.01592 15.264 9.00792 15.432 8.97592 15.672C8.94392 15.848 8.92792 15.976 8.92792 16.056C8.92792 16.456 8.99992 16.76 9.14392 16.968C9.30392 17.16 9.55992 17.256 9.91192 17.256H10.2239V18.672H9.62392C7.95992 18.672 7.12792 17.92 7.12792 16.416C7.12792 15.872 7.15192 15.456 7.19992 15.168C7.26392 14.864 7.29592 14.432 7.29592 13.872C7.29592 13.12 6.87192 12.744 6.02392 12.744L5.92792 11.328ZM18.6959 12.6C17.8479 12.6 17.4239 12.976 17.4239 13.728C17.4239 13.872 17.4319 14.088 17.4479 14.376C17.4799 14.648 17.4959 14.856 17.4959 15C17.5439 15.304 17.5679 15.728 17.5679 16.272C17.5679 17.776 16.7199 18.528 15.0239 18.528H14.4239V17.256H14.7119C15.0639 17.256 15.3119 17.16 15.4559 16.968C15.6159 16.76 15.6959 16.456 15.6959 16.056C15.6959 15.656 15.6719 15.352 15.6239 15.144C15.6239 15.016 15.6079 14.832 15.5759 14.592C15.5439 14.336 15.5279 14.144 15.5279 14.016C15.5279 13.424 15.6559 12.968 15.9119 12.648C16.1359 12.392 16.4879 12.2 16.9679 12.072C16.4879 11.96 16.1359 11.768 15.9119 11.496C15.6559 11.192 15.5279 10.736 15.5279 10.128C15.5279 9.96803 15.5439 9.74402 15.5759 9.45602C15.6079 9.24802 15.6239 9.09602 15.6239 9.00003C15.6719 8.74402 15.6959 8.42402 15.6959 8.04002C15.6959 7.65602 15.6159 7.36802 15.4559 7.17602C15.2959 6.98402 15.0479 6.86402 14.7119 6.81602H14.4239V5.40002H15.0239C15.8239 5.40002 16.4479 5.58402 16.8959 5.95202C17.3439 6.32002 17.5679 6.88802 17.5679 7.65602C17.5679 7.80002 17.5519 8.01602 17.5199 8.30402C17.5039 8.57602 17.4959 8.78402 17.4959 8.92802C17.4479 9.23202 17.4159 9.65602 17.3999 10.2C17.4159 10.536 17.4879 10.792 17.6159 10.968C17.8239 11.208 18.1839 11.328 18.6959 11.328V12.6Z" fill="#CBCB41"/>
</svg>
