<svg width="25" height="24" viewBox="0 0 25 24" fill="none" xmlns="http://www.w3.org/2000/svg">
<path d="M12.0239 11.616H10.5119C9.98387 11.616 9.55987 11.776 9.23987 12.096C8.93587 12.4 8.78387 12.816 8.78387 13.344V14.688C8.78387 14.848 8.71187 14.928 8.56787 14.928H7.89587C7.19187 14.928 6.68787 14.624 6.38387 14.016C6.14387 13.52 6.02387 13.072 6.02387 12.672C5.92787 11.68 5.99987 10.856 6.23987 10.2C6.49587 9.43201 6.96787 8.98401 7.65587 8.85601H11.9999C12.1599 8.85601 12.2399 8.83201 12.2399 8.78401V8.40001L12.1439 8.35201C12.0799 8.336 12.0399 8.32801 12.0239 8.32801H9.45587C9.34387 8.32801 9.26387 8.30401 9.21587 8.25601C9.18387 8.20801 9.16787 8.12801 9.16787 8.01601V7.05601C9.16787 6.496 9.39187 6.144 9.83987 6C10.3359 5.79201 10.7119 5.66401 10.9679 5.61601C11.9279 5.45601 12.8239 5.48001 13.6559 5.68801C14.0719 5.78401 14.4239 5.93601 14.7119 6.14401C14.8879 6.32001 15.0079 6.48001 15.0719 6.62401C15.1679 6.8 15.1999 6.992 15.1679 7.2V9.88801C15.1679 10.416 15.0239 10.824 14.7359 11.112C14.4479 11.4 14.0399 11.544 13.5119 11.544C13.1599 11.592 12.6639 11.616 12.0239 11.616ZM9.91187 7.12801C9.91187 7.28801 9.96787 7.43201 10.0799 7.56C10.1919 7.67201 10.3279 7.72801 10.4879 7.72801C10.6479 7.72801 10.7919 7.66401 10.9199 7.53601C11.0479 7.40801 11.1119 7.27201 11.1119 7.12801C11.1119 6.98401 11.0479 6.85601 10.9199 6.74401C10.8079 6.63201 10.6719 6.56001 10.5119 6.52801C10.3359 6.52801 10.1919 6.59201 10.0799 6.72001C9.96787 6.832 9.91187 6.96801 9.91187 7.12801ZM12.6239 12.384H14.1119C14.6399 12.384 15.0559 12.232 15.3599 11.928C15.6799 11.608 15.8399 11.184 15.8399 10.656V9.28801C15.8399 9.14401 15.9119 9.072 16.0559 9.072H16.7279C17.4319 9.072 17.9359 9.37601 18.2399 9.98401C18.4959 10.48 18.6239 10.928 18.6239 11.328C18.7039 12.32 18.6239 13.144 18.3839 13.8C18.1279 14.568 17.6559 15.016 16.9679 15.144H12.6239C12.4639 15.144 12.3839 15.168 12.3839 15.216V15.6L12.4799 15.648C12.5439 15.664 12.5919 15.672 12.6239 15.672H15.1679C15.2799 15.672 15.3519 15.696 15.3839 15.744C15.4319 15.792 15.4559 15.872 15.4559 15.984V16.944C15.4559 17.504 15.2319 17.856 14.7839 18C14.2879 18.192 13.9119 18.32 13.6559 18.384C12.6959 18.544 11.7999 18.512 10.9679 18.288C10.5519 18.208 10.1999 18.064 9.91187 17.856C9.73587 17.68 9.61587 17.52 9.55187 17.376C9.45587 17.2 9.42387 17.008 9.45587 16.8V14.088C9.45587 13.576 9.59987 13.176 9.88787 12.888C10.1759 12.6 10.5839 12.456 11.1119 12.456C11.4639 12.408 11.9679 12.384 12.6239 12.384ZM14.7119 16.872C14.7119 16.712 14.6559 16.576 14.5439 16.464C14.4319 16.336 14.2959 16.272 14.1359 16.272C13.9759 16.272 13.8319 16.336 13.7039 16.464C13.5759 16.592 13.5119 16.728 13.5119 16.872C13.5119 17.016 13.5679 17.144 13.6799 17.256C13.8079 17.368 13.9519 17.44 14.1119 17.472C14.2879 17.472 14.4319 17.416 14.5439 17.304C14.6559 17.176 14.7119 17.032 14.7119 16.872Z" fill="#519ABA"/>
</svg>
