<svg width="25" height="24" viewBox="0 0 25 24" fill="none" xmlns="http://www.w3.org/2000/svg">
<path d="M12.0239 8.85602H9.45592V16.488H7.58392V8.85602H5.03992V7.48802H11.9279V8.85602H12.0239ZM17.7839 14.184C17.7839 14.008 17.7519 13.856 17.6879 13.728C17.6239 13.6 17.5359 13.472 17.4239 13.344C17.3279 13.264 17.1839 13.176 16.9919 13.08C16.8639 13.032 16.6399 12.944 16.3199 12.816L16.1279 12.744C15.0879 12.44 14.2639 12.064 13.6559 11.616C13.1119 11.152 12.8399 10.576 12.8399 9.88802C12.8399 9.13602 13.1679 8.53602 13.8239 8.08802C14.4159 7.64002 15.1999 7.41602 16.1759 7.41602C17.1679 7.41602 17.9839 7.69602 18.6239 8.25602C19.2159 8.78402 19.5119 9.43202 19.5119 10.2H17.7839C17.7839 9.97602 17.7439 9.78402 17.6639 9.62402C17.5999 9.46402 17.4879 9.30402 17.3279 9.14402C17.0079 8.90402 16.6079 8.78402 16.1279 8.78402C15.6479 8.78402 15.2799 8.88002 15.0239 9.07202C14.7679 9.26402 14.6399 9.53602 14.6399 9.88802C14.6399 10.176 14.7919 10.432 15.0959 10.656C15.2239 10.752 15.4159 10.848 15.6719 10.944C15.8639 11.024 16.1679 11.128 16.5839 11.256C17.5599 11.544 18.3039 11.912 18.8159 12.36C19.3279 12.792 19.5839 13.4 19.5839 14.184C19.5839 14.568 19.5039 14.92 19.3439 15.24C19.1999 15.544 18.9839 15.792 18.6959 15.984C18.0879 16.432 17.2879 16.656 16.2959 16.656C15.2399 16.656 14.3839 16.4 13.7279 15.888C12.9759 15.296 12.6319 14.576 12.6959 13.728H14.4959C14.4959 14.24 14.6719 14.64 15.0239 14.928C15.1679 15.04 15.3599 15.128 15.5999 15.192C15.8399 15.256 16.0959 15.288 16.3679 15.288C16.9119 15.288 17.2879 15.192 17.4959 15C17.6879 14.696 17.7839 14.424 17.7839 14.184Z" fill="#519ABA"/>
</svg>
