<svg xmlns="http://www.w3.org/2000/svg" width="419" height="70" viewBox="0 0 419 70">
  <g id="Group_66264" data-name="Group 66264" transform="translate(-8139 1230)">
    <g id="Group_66263" data-name="Group 66263" transform="translate(8139 -1230)">
      <rect id="Rectangle_4504" data-name="Rectangle 4504" width="419" height="70" rx="10" fill="#0093f7"/>
      <path id="Path_121156" data-name="Path 121156" d="M7.388,30,14.136,9.84h3.472L24.356,30h-2.59L15.452,11.3h.784L9.978,30Zm3.248-4.718V22.944H21.108v2.338ZM34.38,30.42A5.937,5.937,0,0,1,30.8,29.363a6.538,6.538,0,0,1-2.2-2.87,10.561,10.561,0,0,1-.749-4.067,10.586,10.586,0,0,1,.749-4.088A6.384,6.384,0,0,1,30.8,15.5a6.055,6.055,0,0,1,3.591-1.036A6.236,6.236,0,0,1,38.013,15.5a6.7,6.7,0,0,1,2.331,2.849,9.83,9.83,0,0,1,.812,4.074,9.83,9.83,0,0,1-.812,4.074,6.8,6.8,0,0,1-2.331,2.863A6.2,6.2,0,0,1,34.38,30.42Zm-6.958,6.3V14.88h2.226V26.01h.28V36.72Zm6.65-8.582a3.938,3.938,0,0,0,2.478-.756,4.555,4.555,0,0,0,1.47-2.051,8.158,8.158,0,0,0,.49-2.905,8.163,8.163,0,0,0-.483-2.884A4.449,4.449,0,0,0,36.543,17.5,4.1,4.1,0,0,0,34,16.742a3.961,3.961,0,0,0-2.436.721,4.285,4.285,0,0,0-1.442,2,8.476,8.476,0,0,0-.476,2.961,8.621,8.621,0,0,0,.469,2.947,4.284,4.284,0,0,0,1.449,2.03A4.064,4.064,0,0,0,34.072,28.138ZM51.74,30.42a5.937,5.937,0,0,1-3.584-1.057,6.538,6.538,0,0,1-2.2-2.87,10.561,10.561,0,0,1-.749-4.067,10.586,10.586,0,0,1,.749-4.088A6.383,6.383,0,0,1,48.163,15.5a6.055,6.055,0,0,1,3.591-1.036A6.236,6.236,0,0,1,55.373,15.5,6.7,6.7,0,0,1,57.7,18.352a9.83,9.83,0,0,1,.812,4.074A9.83,9.83,0,0,1,57.7,26.5a6.8,6.8,0,0,1-2.331,2.863A6.2,6.2,0,0,1,51.74,30.42Zm-6.958,6.3V14.88h2.226V26.01h.28V36.72Zm6.65-8.582a3.938,3.938,0,0,0,2.478-.756,4.555,4.555,0,0,0,1.47-2.051,8.158,8.158,0,0,0,.49-2.905,8.163,8.163,0,0,0-.483-2.884A4.448,4.448,0,0,0,53.9,17.5a4.1,4.1,0,0,0-2.541-.756,3.961,3.961,0,0,0-2.436.721,4.285,4.285,0,0,0-1.442,2,8.476,8.476,0,0,0-.476,2.961,8.621,8.621,0,0,0,.469,2.947,4.285,4.285,0,0,0,1.449,2.03A4.064,4.064,0,0,0,51.432,28.138Zm11,1.862V9.42h2.492V30Zm9.352,6.72,2.926-7.952.042,2.352L68.148,14.88h2.618l5.18,13.062h-.9L79.908,14.88h2.534L74.21,36.72ZM91.472,30V9.84h2.52l10.514,15.75V9.84h2.52V30h-2.52L93.992,14.236V30Zm26.474.42a7.167,7.167,0,0,1-3.885-1.022,6.756,6.756,0,0,1-2.513-2.828,9.328,9.328,0,0,1-.882-4.144,9.216,9.216,0,0,1,.9-4.172,6.712,6.712,0,0,1,2.534-2.793,7.964,7.964,0,0,1,7.756.014,6.657,6.657,0,0,1,2.513,2.814,9.345,9.345,0,0,1,.875,4.137,9.35,9.35,0,0,1-.882,4.165,6.7,6.7,0,0,1-2.52,2.814A7.241,7.241,0,0,1,117.946,30.42Zm0-2.366a4.052,4.052,0,0,0,3.5-1.568,6.7,6.7,0,0,0,1.148-4.06,6.551,6.551,0,0,0-1.162-4.081,4.113,4.113,0,0,0-3.486-1.519,4.444,4.444,0,0,0-2.6.714,4.276,4.276,0,0,0-1.526,1.974,7.8,7.8,0,0,0-.5,2.912,6.563,6.563,0,0,0,1.176,4.088A4.082,4.082,0,0,0,117.946,28.054ZM131.54,30l-4.62-15.134,2.478.014,3.374,11.06,3.4-11.06h2.2l3.388,11.06,3.388-11.06h2.464L142.992,30H140.92l-3.654-11.494L133.612,30Z" transform="translate(32 16)" fill="#fff"/>
    </g>
    <path id="icons8-apple-logo" d="M34.615,26.287a24.747,24.747,0,0,1-2.236,4.179c-1.455,2.213-3.506,4.975-6.041,4.993-2.256.02-2.839-1.472-5.9-1.446s-3.7,1.475-5.959,1.452c-2.537-.023-4.478-2.511-5.932-4.721-4.068-6.2-4.5-13.46-1.984-17.323a9,9,0,0,1,7.235-4.349c2.693,0,4.384,1.478,6.608,1.478,2.16,0,3.474-1.481,6.588-1.481a8.793,8.793,0,0,1,6.62,3.494A7.579,7.579,0,0,0,34.615,26.287ZM24.627,6.6A7.55,7.55,0,0,0,26.306,1a8.169,8.169,0,0,0-5.268,2.833,7.023,7.023,0,0,0-1.724,5.458A6.869,6.869,0,0,0,24.627,6.6Z" transform="translate(8495 -1213)" fill="#fff"/>
    <path id="icons8-google-play" d="M6.592,2,22.818,18.109l4.449-4.449L7.6,2.3A2.153,2.153,0,0,0,6.592,2Zm-1.358.749A1.847,1.847,0,0,0,5,3.662v31.3a1.684,1.684,0,0,0,.14.679l16.6-16.483Zm23.39,11.683-4.753,4.73,4.753,4.706,5.807-3.325a1.477,1.477,0,0,0,.023-2.739C33.96,17.538,30.287,15.4,28.624,14.433Zm-5.807,5.783L6.452,36.441a1.843,1.843,0,0,0,.843-.234c.641-.372,13.6-7.867,13.6-7.867l6.392-3.676Z" transform="translate(8434 -1214)" fill="#fff"/>
    <g id="web" transform="translate(8368.999 -1213.374)">
      <path id="Path_121147" data-name="Path 121147" d="M23.3,11.419C22.055,5.65,19.406,2,16.955,2s-5.1,3.65-6.341,9.419Z" transform="translate(1.705 0.111)" fill="#fff"/>
      <path id="Path_121148" data-name="Path 121148" d="M10,16.711a35.362,35.362,0,0,0,.315,4.716l13.5-.006a35.338,35.338,0,0,0,.314-4.71,35.362,35.362,0,0,0-.315-4.716L10.314,12A35.338,35.338,0,0,0,10,16.711Z" transform="translate(1.596 1.884)" fill="#fff"/>
      <path id="Path_121149" data-name="Path 121149" d="M10.614,22c1.242,5.769,3.891,9.419,6.341,9.419s5.1-3.65,6.341-9.419Z" transform="translate(1.705 3.659)" fill="#fff"/>
      <path id="Path_121150" data-name="Path 121150" d="M24.17,11.53h7.418a17.729,17.729,0,0,0-12.3-10.156C21.519,3.339,23.271,6.973,24.17,11.53Z" transform="translate(3.244 0)" fill="#fff"/>
      <path id="Path_121151" data-name="Path 121151" d="M31.642,12H23.753a38.068,38.068,0,0,1,.291,4.71,38.082,38.082,0,0,1-.292,4.713l7.889,0a17.543,17.543,0,0,0,0-9.419Z" transform="translate(4.036 1.885)" fill="#fff"/>
      <path id="Path_121152" data-name="Path 121152" d="M19.285,32.156A17.729,17.729,0,0,0,31.59,22H24.172C23.271,26.558,21.519,30.191,19.285,32.156Z" transform="translate(3.244 3.659)" fill="#fff"/>
      <path id="Path_121153" data-name="Path 121153" d="M9.684,22H2.266A17.729,17.729,0,0,0,14.571,32.156C12.335,30.191,10.583,26.558,9.684,22Z" transform="translate(0.224 3.659)" fill="#fff"/>
      <path id="Path_121154" data-name="Path 121154" d="M14.569,1.374A17.729,17.729,0,0,0,2.264,11.53H9.682c.9-4.558,2.654-8.191,4.887-10.156Z" transform="translate(0.224 0)" fill="#fff"/>
      <path id="Path_121155" data-name="Path 121155" d="M9.242,16.71A38.084,38.084,0,0,1,9.534,12L1.645,12a17.543,17.543,0,0,0,0,9.419H9.534a38.069,38.069,0,0,1-.292-4.71Z" transform="translate(0 1.885)" fill="#fff"/>
    </g>
  </g>
</svg>
