<svg width="25" height="24" viewBox="0 0 25 24" fill="none" xmlns="http://www.w3.org/2000/svg">
<path d="M5.63989 11.928C5.63989 10.968 5.78389 10.12 6.07189 9.38398C6.37589 8.63198 6.77589 8.00798 7.27189 7.51198C7.76789 7.01598 8.37589 6.60798 9.09589 6.28798C9.65589 6.04798 10.3759 5.92798 11.2559 5.92798C12.0079 5.92798 12.6799 6.07998 13.2719 6.38398C13.8799 6.67198 14.3839 7.01598 14.7839 7.41598L13.1279 9.28798L12.9359 9.14398C12.6799 8.93598 12.4719 8.81598 12.3119 8.78398L12.0719 8.71198C11.7519 8.59998 11.4799 8.54398 11.2559 8.54398C10.9039 8.54398 10.5839 8.62398 10.2959 8.78398C9.94389 8.94398 9.66389 9.16798 9.45589 9.45598C9.24789 9.72798 9.07189 10.088 8.92789 10.536C8.78389 10.968 8.71189 11.432 8.71189 11.928C8.71189 13.08 8.95989 13.904 9.45589 14.4C9.72789 14.704 10.0159 14.936 10.3199 15.096C10.6399 15.24 10.9999 15.312 11.3999 15.312C11.7999 15.312 12.1519 15.232 12.4559 15.072C12.7919 14.912 13.0719 14.688 13.2959 14.4L14.9279 16.272C14.4639 16.8 13.9199 17.224 13.2959 17.544C12.6879 17.848 12.0079 18 11.2559 18C10.5679 18 9.84789 17.872 9.09589 17.616C8.40789 17.392 7.80789 17.024 7.29589 16.512C7.05589 16.272 6.83989 15.96 6.64789 15.576C6.51989 15.336 6.35989 14.968 6.16789 14.472C5.81589 13.848 5.63989 13 5.63989 11.928ZM16.6559 12.816H15.9119L15.6239 14.616H14.7119L15.0239 12.816H14.1119V12H15.2399L15.3839 10.8H14.4239V9.98398H15.5279L15.8399 8.18398H16.7279L16.4399 9.98398H17.1839L17.4959 8.18398H18.3839L18.0959 9.98398H19.0559V10.8H17.8559L17.7119 12H18.6959V12.816H17.4959L17.1839 14.616H16.2959C16.2959 14.648 16.3519 14.36 16.4639 13.752L16.6559 12.816ZM16.0559 12.072H16.8239L16.9679 10.872H16.2239L16.0559 12.072Z" fill="#519ABA"/>
</svg>
