<svg width="25" height="24" viewBox="0 0 25 24" fill="none" xmlns="http://www.w3.org/2000/svg">
<path d="M12.3119 4.79999C11.0159 4.79999 9.80788 5.12799 8.68788 5.78399C7.59988 6.42399 6.73588 7.28799 6.09588 8.37599C5.43988 9.49599 5.11188 10.704 5.11188 12C5.11188 13.296 5.43988 14.504 6.09588 15.624C6.73588 16.712 7.59988 17.576 8.68788 18.216C9.80788 18.872 11.0159 19.2 12.3119 19.2C13.6079 19.2 14.8159 18.872 15.9359 18.216C17.0239 17.576 17.8879 16.712 18.5279 15.624C19.1839 14.504 19.5119 13.296 19.5119 12C19.5119 10.704 19.1839 9.49599 18.5279 8.37599C17.8879 7.28799 17.0239 6.42399 15.9359 5.78399C14.8159 5.12799 13.6079 4.79999 12.3119 4.79999ZM14.8799 12.96C14.9279 13.344 14.8879 13.72 14.7599 14.088C14.6479 14.456 14.4559 14.784 14.1839 15.072C13.9119 15.344 13.5999 15.552 13.2479 15.696C12.8959 15.824 12.5279 15.872 12.1439 15.84C11.6799 15.872 11.2319 15.8 10.7999 15.624C10.3839 15.432 10.0319 15.16 9.74388 14.808L10.6079 13.704C10.7839 13.928 10.9999 14.104 11.2559 14.232C11.5119 14.36 11.7919 14.424 12.0959 14.424C12.4959 14.424 12.8079 14.296 13.0319 14.04C13.2559 13.768 13.3679 13.368 13.3679 12.84V8.15999H14.8799V12.96Z" fill="#CC3E44"/>
</svg>
